<?xml version="1.0" encoding="iso-8859-1"?>
<!-- Generator: Adobe Illustrator 19.0.0, SVG Export Plug-In . SVG Version: 6.00 Build 0)  -->
<svg version="1.1" id="Layer_1" xmlns="http://www.w3.org/2000/svg" xmlns:xlink="http://www.w3.org/1999/xlink" x="0px" y="0px"
	 viewBox="0 0 512 512" style="enable-background:new 0 0 512 512;" xml:space="preserve">
<g>
	<g>
		<path d="M374.763,68.619V52.784h-31.67V18.474C343.093,8.288,334.805,0,324.619,0H187.381c-10.186,0-18.474,8.288-18.474,18.474
			v34.309h-31.67v15.835H58.062V512h395.876V68.619H374.763z M184.742,18.474c0-1.43,1.209-2.639,2.639-2.639h137.237
			c1.43,0,2.639,1.209,2.639,2.639v34.309H184.742V18.474z M153.072,68.619h205.856v36.948H153.072V68.619z M401.155,121.402
			v337.814H110.845V121.402H401.155z M438.103,496.165H73.897V84.454h63.34v21.113H95.01v369.485H416.99V105.567h-42.227V84.454
			h63.34V496.165z"/>
	</g>
</g>
<g>
	<g>
		<rect x="213.773" y="158.351" width="163.629" height="15.835"/>
	</g>
</g>
<g>
	<g>
		<rect x="213.773" y="190.021" width="89.732" height="15.835"/>
	</g>
</g>
<g>
	<g>
		<rect x="213.773" y="263.918" width="163.629" height="15.835"/>
	</g>
</g>
<g>
	<g>
		<rect x="213.773" y="295.588" width="89.732" height="15.835"/>
	</g>
</g>
<g>
	<g>
		<rect x="213.773" y="358.928" width="163.629" height="15.835"/>
	</g>
</g>
<g>
	<g>
		<rect x="213.773" y="390.598" width="89.732" height="15.835"/>
	</g>
</g>
<g>
	<g>
		<path d="M137.237,158.351v58.062h58.062v-58.062H137.237z M179.464,200.577h-26.392v-26.392h26.392V200.577z"/>
	</g>
</g>
<g>
	<g>
		<path d="M137.237,263.918v58.062h58.062v-58.062H137.237z M179.464,306.144h-26.392v-26.392h26.392V306.144z"/>
	</g>
</g>
<g>
	<g>
		<path d="M137.237,358.928v58.062h58.062v-58.062H137.237z M179.464,401.155h-26.392v-26.392h26.392V401.155z"/>
	</g>
</g>
<g>
	<g>
		<rect x="208.495" y="79.175" width="95.01" height="15.835"/>
	</g>
</g>
<g>
	<g>
		<rect x="314.062" y="79.175" width="21.113" height="15.835"/>
	</g>
</g>
<g>
	<g>
		<rect x="176.825" y="79.175" width="21.113" height="15.835"/>
	</g>
</g>
<g>
</g>
<g>
</g>
<g>
</g>
<g>
</g>
<g>
</g>
<g>
</g>
<g>
</g>
<g>
</g>
<g>
</g>
<g>
</g>
<g>
</g>
<g>
</g>
<g>
</g>
<g>
</g>
<g>
</g>
</svg>
