<?xml version="1.0" encoding="utf-8"?>
<!-- Generator: Adobe Illustrator 16.0.0, SVG Export Plug-In . SVG Version: 6.00 Build 0)  -->
<!DOCTYPE svg PUBLIC "-//W3C//DTD SVG 1.1//EN" "http://www.w3.org/Graphics/SVG/1.1/DTD/svg11.dtd">
<svg version="1.1" id="Layer_1" xmlns="http://www.w3.org/2000/svg" xmlns:xlink="http://www.w3.org/1999/xlink" x="0px" y="0px"
	 width="200px" height="200px" viewBox="0 0 200 200" enable-background="new 0 0 200 200" xml:space="preserve">
<rect x="0" y="0" fill="#5FC2A3" width="200" height="200"/>
<path fill="#FFFFFF" d="M143.499,127.128l-23.062-11.531c-2.187-1.101-3.532-3.287-3.532-5.719v-8.165
	c0.55-0.671,1.121-1.444,1.744-2.292c2.982-4.225,5.378-8.934,7.117-14.007c3.407-1.557,5.631-4.931,5.631-8.731v-9.653
	c0-2.338-0.876-4.586-2.417-6.345V47.841c0.129-1.328,0.657-9.233-5.054-15.756c-4.966-5.665-13.009-8.528-23.926-8.528
	s-18.959,2.863-23.929,8.528c-5.715,6.515-5.184,14.428-5.042,15.756v12.843c-1.557,1.758-2.418,4.006-2.418,6.345v9.653
	c0,2.939,1.336,5.679,3.612,7.503c2.215,8.76,6.841,15.358,8.459,17.476v7.991c0,2.34-1.282,4.482-3.323,5.604l-21.544,11.756
	c-7.004,3.822-11.354,11.142-11.354,19.127v7.803c0,11.481,36.326,14.5,55.539,14.5c19.205,0,55.539-3.019,55.539-14.5v-7.333
	C155.539,138.313,150.928,130.835,143.499,127.128z M150.711,153.942c0,3.294-17.902,9.664-50.711,9.664
	c-32.808,0-50.711-6.37-50.711-9.664v-7.803c0-6.204,3.388-11.924,8.835-14.892l21.544-11.75c3.602-1.961,5.842-5.732,5.842-9.846
	v-9.7l-0.561-0.673c-0.062-0.066-5.976-7.232-8.238-17.063l-0.214-0.951l-0.829-0.532c-1.396-0.905-2.237-2.414-2.237-4.05v-9.653
	c0-1.365,0.583-2.625,1.622-3.565l0.796-0.723V47.708l-0.018-0.322c-0.007-0.062-0.829-6.761,3.88-12.123
	c4-4.563,10.823-6.874,20.288-6.874c9.433,0,16.245,2.292,20.257,6.823c4.704,5.314,3.914,12.118,3.914,12.173l-0.028,15.355
	l0.797,0.723c1.043,0.941,1.628,2.201,1.628,3.565v9.653c0,2.107-1.375,3.949-3.438,4.583l-1.195,0.373l-0.396,1.194
	c-1.614,5.024-3.924,9.665-6.842,13.798c-0.716,1.014-1.411,1.919-2.02,2.599l-0.607,0.691v9.958c0,4.271,2.382,8.122,6.196,10.034
	l23.079,11.53c5.775,2.896,9.367,8.71,9.367,15.167V153.942z"/>
</svg>
