<?xml version="1.0" encoding="utf-8"?>
<!-- Generator: Adobe Illustrator 16.0.0, SVG Export Plug-In . SVG Version: 6.00 Build 0)  -->
<!DOCTYPE svg PUBLIC "-//W3C//DTD SVG 1.1//EN" "http://www.w3.org/Graphics/SVG/1.1/DTD/svg11.dtd">
<svg version="1.1" id="Capa_1" xmlns="http://www.w3.org/2000/svg" xmlns:xlink="http://www.w3.org/1999/xlink" x="0px" y="0px"
	 width="200px" height="200px" viewBox="0 0 200 200" enable-background="new 0 0 200 200" xml:space="preserve">
<g>
	<path fill="#FFFFFF" d="M196.088,88.662c0.367-0.887,0.367-1.887,0-2.778c-0.186-0.447-0.455-0.851-0.789-1.189l-43.633-43.629
		c-1.422-1.422-3.721-1.422-5.143,0s-1.422,3.72,0,5.142l37.43,37.429h-78.495c-2.011,0-3.636,1.625-3.636,3.637
		c0,2.011,1.625,3.636,3.636,3.636h78.495l-37.43,37.429c-1.422,1.422-1.422,3.721,0,5.143c0.709,0.709,1.641,1.064,2.571,1.064
		s1.862-0.355,2.571-1.064l43.633-43.633C195.633,89.513,195.902,89.109,196.088,88.662z"/>
	<path fill="#FFFFFF" d="M130.912,105.455c-2.01,0-3.636,1.625-3.636,3.636v58.183H90.913V29.091c0-1.585-1.025-2.985-2.534-3.465
		L30.698,7.273h96.578v58.182c0,2.011,1.626,3.636,3.636,3.636c2.012,0,3.637-1.625,3.637-3.636V3.636
		c0-2.011-1.625-3.636-3.637-3.636H7.276C7.16,0,7.058,0.055,6.945,0.065C6.742,0.083,6.563,0.131,6.371,0.182
		C6.029,0.273,5.724,0.396,5.429,0.575C5.334,0.633,5.222,0.633,5.131,0.698c-0.113,0.083-0.2,0.189-0.302,0.28
		C4.767,1.036,4.702,1.087,4.644,1.149C4.367,1.447,4.142,1.778,3.975,2.142C3.942,2.214,3.924,2.287,3.895,2.36
		C3.742,2.767,3.64,3.193,3.64,3.636v167.273c0,0.454,0.105,0.884,0.262,1.291c0.051,0.134,0.127,0.247,0.193,0.374
		c0.134,0.258,0.287,0.495,0.48,0.713c0.105,0.117,0.211,0.223,0.327,0.328c0.211,0.185,0.447,0.338,0.702,0.473
		c0.135,0.072,0.258,0.148,0.404,0.203c0.062,0.021,0.109,0.065,0.171,0.087l80,25.454c0.356,0.109,0.727,0.168,1.098,0.168
		c0.764,0,1.517-0.24,2.146-0.698c0.938-0.684,1.491-1.774,1.491-2.938v-21.818h40c2.012,0,3.637-1.625,3.637-3.636v-61.818
		C134.549,107.08,132.92,105.455,130.912,105.455z M83.64,191.393l-72.728-23.142V8.607L83.64,31.749V191.393z"/>
</g>
</svg>
