<?xml version="1.0" encoding="utf-8"?>
<!-- Generator: Adobe Illustrator 16.0.0, SVG Export Plug-In . SVG Version: 6.00 Build 0)  -->
<!DOCTYPE svg PUBLIC "-//W3C//DTD SVG 1.1//EN" "http://www.w3.org/Graphics/SVG/1.1/DTD/svg11.dtd">
<svg version="1.1" id="Capa_1" xmlns="http://www.w3.org/2000/svg" xmlns:xlink="http://www.w3.org/1999/xlink" x="0px" y="0px"
	 width="512px" height="512px" viewBox="0 0 512 512" enable-background="new 0 0 512 512" xml:space="preserve">
<g>
	<path d="M16.401,262.473l109.705,109.705c1.783,1.783,4.123,2.679,6.464,2.679s4.682-0.896,6.464-2.679
		c3.575-3.575,3.575-9.354,0-12.928l-94.107-94.107H324.57c5.047,0,9.143-4.087,9.143-9.144c0-5.056-4.096-9.143-9.143-9.143H44.926
		l94.107-94.107c3.575-3.575,3.575-9.354,0-12.928c-3.575-3.575-9.353-3.575-12.928,0L16.401,249.517
		c-0.841,0.851-1.518,1.865-1.984,2.99c-0.923,2.24-0.923,4.754,0,6.985C14.883,260.617,15.56,261.632,16.401,262.473z"/>
	<path d="M169.141,310.857v192c0,5.057,4.097,9.143,9.143,9.143h310.857c5.047,0,9.143-4.086,9.143-9.143V9.143
		c0-5.057-4.096-9.144-9.143-9.144H178.283c-5.046,0-9.143,4.087-9.143,9.144v192c0,5.056,4.097,9.143,9.143,9.143
		c5.047,0,9.144-4.087,9.144-9.143V18.286h292.571v475.429H187.427V310.857c0-5.056-4.097-9.143-9.144-9.143
		S169.141,305.802,169.141,310.857z"/>
</g>
</svg>
