<?xml version="1.0" encoding="utf-8"?>
<!-- Generator: Adobe Illustrator 16.0.0, SVG Export Plug-In . SVG Version: 6.00 Build 0)  -->
<!DOCTYPE svg PUBLIC "-//W3C//DTD SVG 1.1//EN" "http://www.w3.org/Graphics/SVG/1.1/DTD/svg11.dtd">
<svg version="1.1" id="Layer_1" xmlns="http://www.w3.org/2000/svg" xmlns:xlink="http://www.w3.org/1999/xlink" x="0px" y="0px"
	 width="107.5px" height="107.5px" viewBox="0 0 107.5 107.5" enable-background="new 0 0 107.5 107.5" xml:space="preserve">
<g>
	<defs>
		<rect id="SVGID_1_" x="-40.5" y="-42.5" width="180" height="180"/>
	</defs>
	<clipPath id="SVGID_2_">
		<use xlink:href="#SVGID_1_"  overflow="visible"/>
	</clipPath>
	<path clip-path="url(#SVGID_2_)" fill="#FFFFFF" d="M44.001,98.215L7.786,61.998c-5.246-5.245-5.246-13.751,0-18.996L44.001,6.785
		c5.247-5.246,13.751-5.246,18.997,0l36.217,36.217c5.246,5.245,5.246,13.751,0,18.996L62.998,98.215
		C57.753,103.461,49.248,103.461,44.001,98.215"/>
	<path clip-path="url(#SVGID_2_)" fill="none" stroke="#FFFFFF" stroke-miterlimit="10" d="M44.001,98.215L7.786,61.998
		c-5.246-5.245-5.246-13.751,0-18.996L44.001,6.785c5.247-5.246,13.751-5.246,18.997,0l36.217,36.217
		c5.246,5.245,5.246,13.751,0,18.996L62.998,98.215C57.753,103.461,49.248,103.461,44.001,98.215z"/>
	<path clip-path="url(#SVGID_2_)" fill="#D3D3D3" d="M62.998,98.215l36.217-36.217c5.246-5.245,5.246-13.751,0-18.996L62.998,6.785
		c-5.245-5.246-13.75-5.246-18.997,0c0,0,21.542,8.83,22.999,44.215C67.508,63.343,71.274,78.505,62.998,98.215"/>
	<path clip-path="url(#SVGID_2_)" fill="none" stroke="#D3D3D3" stroke-miterlimit="10" d="M62.998,98.215l36.217-36.217
		c5.246-5.245,5.246-13.751,0-18.996L62.998,6.785c-5.245-5.246-13.75-5.246-18.997,0c0,0,21.542,8.83,22.999,44.215
		C67.508,63.343,71.274,78.505,62.998,98.215z"/>
	<path clip-path="url(#SVGID_2_)" fill="#FFFFFF" d="M40.418,31.897h14.828c7.786,0,11.336,4.766,11.336,12.234
		c0,3.071-0.689,5.879-3.496,8.369c3.018,2.859,3.496,5.666,3.496,9.586c0,6.938-4.609,11.016-11.336,11.016H40.418V31.897z
		 M45.714,49.853h9.532c3.814,0,6.039-1.695,6.039-5.721c0-4.448-1.217-6.937-6.039-6.937h-9.532V49.853z M45.714,67.806h9.532
		c3.814,0,6.039-1.693,6.039-5.719c0-4.449-1.217-6.938-6.039-6.938h-9.532V67.806z"/>
	<path clip-path="url(#SVGID_2_)" fill="#33C197" stroke="#33C197" stroke-width="3" stroke-miterlimit="10" d="M42.418,31.897
		h14.828c7.786,0,11.336,4.766,11.336,12.234c0,3.071-0.689,5.879-3.496,8.369c3.018,2.859,3.496,5.666,3.496,9.586
		c0,6.938-4.609,11.016-11.336,11.016H42.418V31.897z M47.714,49.853h9.532c3.814,0,6.039-1.695,6.039-5.721
		c0-4.448-1.217-6.937-6.039-6.937h-9.532V49.853z M47.714,67.806h9.532c3.814,0,6.039-1.693,6.039-5.719
		c0-4.449-1.217-6.938-6.039-6.938h-9.532V67.806z"/>
</g>
<g id="Layer_7">
	<text transform="matrix(1 0 0 1 436.4473 -78.895)" font-family="'MyriadPro-Regular'" font-size="12" letter-spacing="33">  </text>
	<polygon fill="#FFFFFF" stroke="#FFFFFF" stroke-width="0.4932" stroke-miterlimit="10" points="48.967,-333.332 53.115,-373.368 
		54.332,-333.332 78.588,-355.253 57.361,-331.465 85.35,-329.367 56.197,-327.033 69.725,-311.875 54.1,-324.469 52.553,-288.039 
		48.967,-324.002 25.646,-301.146 48.5,-327.5 17.482,-329.6 47.566,-331.465 35.905,-345.692 	"/>
</g>
</svg>
