<?xml version="1.0" encoding="utf-8"?>
<!-- Generator: Adobe Illustrator 16.0.0, SVG Export Plug-In . SVG Version: 6.00 Build 0)  -->
<!DOCTYPE svg PUBLIC "-//W3C//DTD SVG 1.1//EN" "http://www.w3.org/Graphics/SVG/1.1/DTD/svg11.dtd">
<svg version="1.1" id="Layer_1" xmlns="http://www.w3.org/2000/svg" xmlns:xlink="http://www.w3.org/1999/xlink" x="0px" y="0px"
	 width="55px" height="55px" viewBox="28 -85.5 55 55" enable-background="new 28 -85.5 55 55" xml:space="preserve">
<g>
	<path d="M137.2,11.929L53.635,95.494c-1.24,1.241-1.861,2.946-1.861,4.497c0,1.705,0.621,3.255,1.861,4.496l83.565,83.565
		c2.48,2.48,6.512,2.48,8.992,0c2.481-2.48,2.481-6.512,0-8.992L66.968,99.836l79.225-79.07c2.481-2.48,2.481-6.512,0-8.992
		C143.712,9.293,139.681,9.293,137.2,11.929z"/>
</g>
<g>
	<path d="M45.333-77.366c-0.545,0.545-0.545,1.431,0,1.976l17.405,17.371L45.333-40.614c-0.545,0.545-0.545,1.431,0,1.976
		s1.431,0.545,1.976,0l18.358-18.358c0.272-0.273,0.409-0.613,0.409-0.988c0-0.341-0.137-0.715-0.409-0.988L47.308-77.332
		C46.763-77.911,45.877-77.911,45.333-77.366z"/>
</g>
</svg>
