<?xml version="1.0" encoding="utf-8"?>
<!-- Generator: Adobe Illustrator 16.0.0, SVG Export Plug-In . SVG Version: 6.00 Build 0)  -->
<!DOCTYPE svg PUBLIC "-//W3C//DTD SVG 1.1//EN" "http://www.w3.org/Graphics/SVG/1.1/DTD/svg11.dtd">
<svg version="1.1" id="Layer_1" xmlns="http://www.w3.org/2000/svg" xmlns:xlink="http://www.w3.org/1999/xlink" x="0px" y="0px"
	 width="55px" height="55px" viewBox="0 0 55 55" enable-background="new 0 0 55 55" xml:space="preserve">
<g>
	<path d="M137.2,11.929L53.635,95.494c-1.24,1.24-1.861,2.945-1.861,4.497c0,1.704,0.621,3.255,1.861,4.495l83.565,83.565
		c2.479,2.48,6.512,2.48,8.991,0c2.481-2.479,2.481-6.512,0-8.991L66.968,99.836l79.226-79.07c2.48-2.48,2.48-6.512,0-8.992
		C143.712,9.293,139.682,9.293,137.2,11.929z"/>
</g>
<g>
	<path d="M63.691-77.332L45.333-58.973c-0.272,0.273-0.409,0.647-0.409,0.988c0,0.375,0.137,0.715,0.409,0.988l18.358,18.358
		c0.545,0.545,1.431,0.545,1.976,0c0.545-0.545,0.545-1.431,0-1.976L48.262-58.019L65.667-75.39c0.545-0.545,0.545-1.431,0-1.976
		C65.122-77.911,64.236-77.911,63.691-77.332z"/>
</g>
<g>
	<path fill="#FFFFFF" d="M35.691,8.169L17.333,26.528c-0.272,0.273-0.409,0.647-0.409,0.988c0,0.375,0.137,0.714,0.409,0.988
		l18.358,18.357c0.545,0.546,1.431,0.546,1.976,0c0.545-0.545,0.545-1.43,0-1.976L20.262,27.482l17.405-17.371
		c0.545-0.545,0.545-1.431,0-1.976C37.122,7.59,36.236,7.59,35.691,8.169z"/>
</g>
</svg>
