<?xml version="1.0" encoding="utf-8"?>
<!-- Generator: Adobe Illustrator 16.0.0, SVG Export Plug-In . SVG Version: 6.00 Build 0)  -->
<!DOCTYPE svg PUBLIC "-//W3C//DTD SVG 1.1//EN" "http://www.w3.org/Graphics/SVG/1.1/DTD/svg11.dtd">
<svg version="1.1" id="Capa_1" xmlns="http://www.w3.org/2000/svg" xmlns:xlink="http://www.w3.org/1999/xlink" x="0px" y="0px"
	 width="512px" height="512px" viewBox="0 0 512 512" enable-background="new 0 0 512 512" xml:space="preserve">
<g>
	<path fill="#FFFFFF" d="M256,123.26c-73.197,0-132.741,59.544-132.741,132.74c0,73.197,59.544,132.741,132.741,132.741
		c73.197,0,132.74-59.544,132.74-132.741C388.74,182.803,329.198,123.26,256,123.26z M256,369.777
		c-62.739,0-113.778-51.038-113.778-113.777c0-62.738,51.039-113.777,113.778-113.777c62.738,0,113.777,51.039,113.777,113.777
		C369.778,318.739,318.739,369.777,256,369.777z"/>
	<path fill="#FFFFFF" d="M485.641,199.111h-19.133c-4.884-18.129-12.061-35.479-21.429-51.74L458.6,133.85
		c4.979-4.978,7.719-11.605,7.719-18.641c0-7.045-2.74-13.663-7.719-18.65L415.431,53.39c-9.956-9.946-27.315-9.965-37.29,0
		L364.62,66.911c-16.271-9.358-33.611-16.536-51.73-21.419V26.358C312.889,11.823,301.066,0,286.531,0H225.47
		c-14.535,0-26.358,11.823-26.358,26.358v19.134c-18.119,4.883-35.461,12.061-51.741,21.429L133.85,53.4
		c-9.965-9.975-27.335-9.956-37.29,0L53.39,96.569c-4.978,4.978-7.718,11.605-7.718,18.649c0,7.036,2.74,13.653,7.718,18.641
		l13.521,13.521c-9.357,16.251-16.545,33.602-21.418,51.73H26.359C11.823,199.111,0,210.934,0,225.469v61.053
		c0,14.543,11.823,26.367,26.358,26.367h19.134c4.883,18.119,12.061,35.461,21.428,51.74L53.4,378.15
		c-4.978,4.978-7.718,11.604-7.718,18.641c0,7.045,2.74,13.663,7.718,18.65l43.169,43.169c9.956,9.965,27.326,9.975,37.291,0
		l13.521-13.521c16.279,9.358,33.621,16.545,51.74,21.428v19.135c0,14.534,11.823,26.357,26.358,26.357h61.052
		c14.535,0,26.357-11.823,26.357-26.357v-19.135c18.119-4.883,35.461-12.061,51.74-21.428l13.521,13.521
		c9.975,9.975,27.324,9.954,37.291,0l43.169-43.169c4.978-4.979,7.718-11.605,7.718-18.65c0-7.035-2.74-13.653-7.718-18.641
		l-13.521-13.521c9.358-16.279,16.545-33.621,21.428-51.74h19.135c14.534,0,26.357-11.824,26.357-26.359v-61.061
		C512,210.934,500.176,199.111,485.641,199.111z M493.036,286.529c0,4.078-3.318,7.396-7.396,7.396h-34.057l-1.707,7.33
		c-4.938,21.21-13.265,41.339-24.775,59.837l-3.981,6.392l24.074,24.074c2.892,2.892,2.892,7.584,0,10.467l-43.17,43.17
		c-2.883,2.882-7.575,2.9-10.468,0l-24.072-24.074l-6.392,3.981c-18.489,11.512-38.618,19.846-59.838,24.775l-7.329,1.706v34.058
		c0,4.077-3.317,7.396-7.396,7.396H225.47c-4.077,0-7.396-3.318-7.396-7.396v-34.057l-7.329-1.707
		c-21.211-4.94-41.34-13.265-59.838-24.775l-6.391-3.981l-24.073,24.074c-2.901,2.9-7.595,2.882-10.468,0l-43.169-43.17
		c-2.893-2.893-2.893-7.586,0-10.467l24.073-24.074l-3.982-6.391c-11.511-18.488-19.845-38.617-24.775-59.838l-1.706-7.33H26.359
		c-4.077,0-7.396-3.318-7.396-7.396v-61.061c0-4.077,3.318-7.396,7.396-7.396h34.058l1.706-7.329
		c4.94-21.22,13.265-41.349,24.775-59.838l3.982-6.391l-24.073-24.073c-2.893-2.892-2.893-7.585,0-10.468l43.169-43.169
		c2.882-2.882,7.575-2.901,10.468,0l24.073,24.073l6.391-3.981c18.488-11.511,38.618-19.845,59.837-24.775l7.33-1.707V26.358
		c0-4.076,3.318-7.396,7.396-7.396h61.05c4.088,0,7.406,3.319,7.406,7.396v34.058l7.328,1.707
		c21.21,4.939,41.339,13.265,59.838,24.775l6.392,3.981l24.072-24.073c2.901-2.901,7.596-2.882,10.468,0l43.17,43.169
		c2.892,2.893,2.892,7.586,0,10.468l-24.074,24.073l3.982,6.391c11.511,18.479,19.845,38.608,24.774,59.838l1.707,7.329h34.057
		c4.077,0,7.396,3.318,7.396,7.396v61.059H493.036z"/>
	<path fill="#FFFFFF" d="M256,161.185c-52.281,0-94.815,42.534-94.815,94.814s42.534,94.815,94.815,94.815
		c52.28,0,94.814-42.535,94.814-94.815C350.815,203.719,308.281,161.185,256,161.185z M256,331.852
		c-41.823,0-75.853-34.028-75.853-75.853c0-41.822,34.029-75.852,75.853-75.852c41.822,0,75.852,34.029,75.852,75.852
		C331.852,297.823,297.823,331.852,256,331.852z"/>
</g>
</svg>
