<?xml version="1.0" encoding="utf-8"?>
<!-- Generator: Adobe Illustrator 16.0.0, SVG Export Plug-In . SVG Version: 6.00 Build 0)  -->
<!DOCTYPE svg PUBLIC "-//W3C//DTD SVG 1.1//EN" "http://www.w3.org/Graphics/SVG/1.1/DTD/svg11.dtd">
<svg version="1.1" id="Layer_1" xmlns="http://www.w3.org/2000/svg" xmlns:xlink="http://www.w3.org/1999/xlink" x="0px" y="0px"
	 width="20px" height="20px" viewBox="0 0 20 20" enable-background="new 0 0 20 20" xml:space="preserve">
<path fill="#FFFFFF" d="M15.868,14.199l-3.111-1.557c-0.295-0.147-0.478-0.442-0.478-0.771V10.77
	c0.074-0.09,0.152-0.194,0.236-0.309c0.401-0.57,0.726-1.205,0.959-1.89c0.461-0.21,0.76-0.665,0.76-1.178V6.092
	c0-0.315-0.117-0.619-0.325-0.856V3.503c0.018-0.179,0.089-1.246-0.683-2.125c-0.67-0.764-1.754-1.15-3.228-1.15
	c-1.473,0-2.558,0.386-3.228,1.15C6,2.257,6.072,3.324,6.091,3.503v1.732c-0.21,0.237-0.326,0.541-0.326,0.856v1.302
	c0,0.396,0.18,0.766,0.487,1.012c0.299,1.182,0.923,2.072,1.141,2.357v1.078c0,0.314-0.173,0.604-0.448,0.756L4.04,14.184
	c-0.945,0.517-1.532,1.504-1.532,2.58v1.053c0,1.55,4.9,1.957,7.492,1.957c2.591,0,7.492-0.407,7.492-1.957v-0.988
	C17.492,15.708,16.87,14.699,15.868,14.199z M16.841,17.816c0,0.443-2.415,1.304-6.841,1.304s-6.841-0.859-6.841-1.304v-1.053
	c0-0.838,0.457-1.609,1.192-2.01l2.906-1.585c0.486-0.265,0.788-0.772,0.788-1.328v-1.309l-0.075-0.09
	C7.962,10.433,7.164,9.466,6.859,8.14L6.83,8.012L6.718,7.94C6.529,7.818,6.416,7.615,6.416,7.394V6.092
	c0-0.184,0.079-0.354,0.219-0.481l0.107-0.098V3.485L6.74,3.442C6.739,3.434,6.628,2.53,7.263,1.807
	C7.803,1.191,8.723,0.879,10,0.879c1.271,0,2.191,0.309,2.732,0.92c0.635,0.717,0.527,1.635,0.527,1.642l-0.004,2.071l0.107,0.098
	c0.141,0.127,0.22,0.297,0.22,0.481v1.302c0,0.284-0.187,0.533-0.464,0.618l-0.161,0.05l-0.054,0.161
	c-0.219,0.678-0.529,1.304-0.924,1.861c-0.097,0.137-0.189,0.259-0.271,0.351l-0.082,0.093v1.343c0,0.575,0.321,1.096,0.836,1.354
	l3.113,1.555c0.779,0.392,1.264,1.176,1.264,2.047L16.841,17.816L16.841,17.816z"/>
<g display="none">
	<path display="inline" fill="#FFFFFF" d="M15.529,6.951v-1.94C15.529,2.248,13.05,0,10,0C6.951,0,4.471,2.248,4.471,5.011v1.94
		C3.295,7.153,2.397,8.178,2.397,9.41v6.754c0,1.377,1.121,2.498,2.498,2.498h10.21c1.377,0,2.498-1.121,2.498-2.498V9.41
		C17.604,8.178,16.705,7.153,15.529,6.951z M5.162,5.011c0-2.382,2.17-4.32,4.838-4.32s4.838,1.938,4.838,4.32v1.901H5.162V5.011z
		 M16.912,16.164c0,0.996-0.811,1.809-1.807,1.809H4.895c-0.996,0-1.807-0.812-1.807-1.809V9.41c0-0.996,0.811-1.807,1.807-1.807
		h10.21c0.996,0,1.807,0.811,1.807,1.807V16.164z"/>
	<path display="inline" fill="#FFFFFF" d="M10,9.677c-0.762,0-1.382,0.62-1.382,1.382v2.074c0,0.764,0.62,1.383,1.382,1.383
		c0.762,0,1.383-0.619,1.383-1.383v-2.074C11.383,10.297,10.762,9.677,10,9.677z M10.691,13.133c0,0.383-0.311,0.691-0.691,0.691
		s-0.691-0.311-0.691-0.691v-2.074c0-0.381,0.31-0.689,0.691-0.689s0.691,0.311,0.691,0.689V13.133z"/>
</g>
<g display="none">
	<path display="inline" fill="#FFFFFF" d="M15.771,7.515V5.49c0-2.883-2.588-5.23-5.771-5.23c-3.182,0-5.771,2.347-5.771,5.23v2.025
		c-1.227,0.212-2.165,1.281-2.165,2.567v7.049c0,1.438,1.17,2.607,2.607,2.607h10.658c1.438,0,2.606-1.17,2.606-2.607v-7.049
		C17.938,8.796,16.999,7.727,15.771,7.515z M4.95,5.49c0-2.486,2.266-4.509,5.05-4.509c2.785,0,5.05,2.023,5.05,4.509v1.985H4.95
		V5.49z M17.215,17.132c0,1.04-0.846,1.888-1.886,1.888H4.671c-1.04,0-1.886-0.848-1.886-1.888v-7.049
		c0-1.04,0.847-1.886,1.886-1.886h10.658c1.04,0,1.886,0.847,1.886,1.886V17.132z"/>
	<path display="inline" fill="#FFFFFF" d="M10,10.361c-0.795,0-1.443,0.647-1.443,1.442v2.166c0,0.797,0.647,1.441,1.443,1.441
		s1.443-0.646,1.443-1.441v-2.166C11.443,11.008,10.795,10.361,10,10.361z M10.723,13.969c0,0.398-0.325,0.723-0.723,0.723
		s-0.722-0.323-0.722-0.723v-2.166c0-0.396,0.324-0.72,0.722-0.72s0.723,0.321,0.723,0.72V13.969z"/>
</g>
</svg>
